<?xml version="1.0" standalone="no"?>
<!DOCTYPE svg PUBLIC "-//W3C//DTD SVG 20010904//EN"
 "http://www.w3.org/TR/2001/REC-SVG-20010904/DTD/svg10.dtd">
<svg version="1.0" xmlns="http://www.w3.org/2000/svg"
 width="512.000000pt" height="512.000000pt" viewBox="0 0 512.000000 512.000000"
 preserveAspectRatio="xMidYMid meet">

<g transform="translate(0.000000,512.000000) scale(0.100000,-0.100000)"
fill="#002f34" stroke="none">
<path d="M2395 4469 c-744 -70 -1424 -604 -1653 -1299 -135 -408 -135 -822 0
-1230 189 -573 692 -1049 1296 -1229 500 -148 1050 -74 1513 204 192 116 410
313 541 490 234 315 368 697 385 1090 24 570 -222 1142 -650 1511 -319 275
-684 427 -1117 464 -130 11 -186 11 -315 -1z m490 -349 c293 -62 548 -198 763
-404 210 -203 345 -412 432 -675 59 -175 74 -276 74 -481 0 -274 -46 -468
-169 -715 -83 -166 -174 -293 -300 -420 -270 -270 -620 -431 -1009 -465 -689
-60 -1396 412 -1635 1093 -186 530 -42 1172 360 1601 240 257 595 435 969 486
113 15 402 4 515 -20z"/>
<path d="M2390 3270 l0 -550 -550 0 -550 0 0 -155 0 -155 550 0 550 0 0 -570
0 -570 160 0 160 0 0 570 0 570 570 0 570 0 0 155 0 155 -570 0 -570 0 0 550
0 550 -160 0 -160 0 0 -550z"/>
</g>
</svg>
